{
  "accessors": [
    {
      "bufferView": 2,
      "componentType": 5126,
      "count": 20681,
      "max": [
        1.8435349464416504,
        2.054347038269043,
        0.9186968207359314
      ],
      "min": [
        -2.0395617485046387,
        -2.3373754024505615,
        -1.0017216205596924
      ],
      "type": "VEC3"
    },
    {
      "bufferView": 2,
      "byteOffset": 248172,
      "componentType": 5126,
      "count": 20681,
      "max": [
        0.99983423948287964,
        0.99978411197662354,
        0.99966162443161011
      ],
      "min": [
        -0.99974352121353149,
        -0.9999426007270813,
        -0.99997717142105103
      ],
      "type": "VEC3"
    },
    {
      "bufferView": 3,
      "componentType": 5126,
      "count": 20681,
      "max": [
        0.99999254941940308,
        0.99999958276748657,
        0.99999964237213135,
        1
      ],
      "min": [
        -0.99997735023498535,
        -0.99999833106994629,
        -0.99998831748962402,
        -1
      ],
      "type": "VEC4"
    },
    {
      "bufferView": 1,
      "componentType": 5126,
      "count": 20681,
      "max": [
        0.99950003623962402,
        0.99379509687423706
      ],
      "min": [
        0.00050000002374872565,
        0.00050000002374872565
      ],
      "type": "VEC2"
    },
    {
      "bufferView": 0,
      "componentType": 5125,
      "count": 74952,
      "max": [
        20680
      ],
      "min": [
        0
      ],
      "type": "SCALAR"
    }
  ],
  "asset": {
    "extras": {
      "author": "Lukáš Marek (https://sketchfab.com/Parek)",
      "license": "CC-BY-NC-4.0 (http://creativecommons.org/licenses/by-nc/4.0/)",
      "source": "https://sketchfab.com/models/6c77dfc55d34470991f77ba78fc2bdf4",
      "title": "Octopus"
    },
    "generator": "Sketchfab-3.25.5",
    "version": "2.0"
  },
  "bufferViews": [
    {
      "buffer": 0,
      "byteLength": 299808,
      "byteOffset": 0,
      "name": "floatBufferViews",
      "target": 34963
    },
    {
      "buffer": 0,
      "byteLength": 165448,
      "byteOffset": 299808,
      "byteStride": 8,
      "name": "floatBufferViews",
      "target": 34962
    },
    {
      "buffer": 0,
      "byteLength": 496344,
      "byteOffset": 465256,
      "byteStride": 12,
      "name": "floatBufferViews",
      "target": 34962
    },
    {
      "buffer": 0,
      "byteLength": 330896,
      "byteOffset": 961600,
      "byteStride": 16,
      "name": "floatBufferViews",
      "target": 34962
    }
  ],
  "buffers": [
    {
      "byteLength": 1292496,
      "uri": "scene.bin"
    }
  ],
  "images": [
    {
      "uri": "textures/default_normal.jpg"
    }
  ],
  "materials": [
    {
      "doubleSided": false,
      "emissiveFactor": [
        0,
        0,
        0
      ],
      "name": "default",
      "normalTexture": {
        "index": 0,
        "scale": 1,
        "texCoord": 0
      },
      "pbrMetallicRoughness": {
        "baseColorFactor": [
          0.58799999999999997,
          0.58799999999999997,
          0.58799999999999997,
          1
        ],
        "metallicFactor": 0,
        "roughnessFactor": 0.59999999999999998
      }
    }
  ],
  "meshes": [
    {
      "name": "Group24148_default_0",
      "primitives": [
        {
          "attributes": {
            "NORMAL": 1,
            "POSITION": 0,
            "TANGENT": 2,
            "TEXCOORD_0": 3
          },
          "indices": 4,
          "material": 0,
          "mode": 4
        }
      ]
    }
  ],
  "nodes": [
    {
      "children": [
        1
      ],
      "name": "RootNode (gltf orientation matrix)",
      "rotation": [
        -0.70710678118654746,
        -0,
        -0,
        0.70710678118654757
      ]
    },
    {
      "children": [
        2
      ],
      "matrix": [
        0.9994848370552063,
        0.00072391901630908251,
        -0.032085847109556198,
        0,
        0.00064158928580582142,
        0.99909508228302002,
        0.042527243494987488,
        0,
        0.032087601721286774,
        -0.042525921016931534,
        0.99857997894287109,
        0,
        0.0013722865842282772,
        -0.0018223895458504558,
        0.0028143739327788353,
        1
      ],
      "name": "RootNode (model correction matrix)"
    },
    {
      "children": [
        3
      ],
      "matrix": [
        1,
        0,
        0,
        0,
        0,
        0,
        1,
        0,
        0,
        -1,
        0,
        0,
        0,
        0,
        0,
        1
      ],
      "name": "ad7f48af41644c6484ef66010e52f790.fbx"
    },
    {
      "children": [
        4
      ],
      "name": "RootNode"
    },
    {
      "children": [
        5
      ],
      "matrix": [
        1,
        0,
        0,
        0,
        0,
        2.2204460492503131e-16,
        -1,
        0,
        0,
        1,
        2.2204460492503131e-16,
        0,
        0,
        0,
        0,
        1
      ],
      "name": "Group24148"
    },
    {
      "mesh": 0,
      "name": "Group24148_default_0"
    }
  ],
  "samplers": [
    {
      "magFilter": 9729,
      "minFilter": 9987,
      "wrapS": 10497,
      "wrapT": 10497
    }
  ],
  "scene": 0,
  "scenes": [
    {
      "name": "OSG_Scene",
      "nodes": [
        0
      ]
    }
  ],
  "textures": [
    {
      "sampler": 0,
      "source": 0
    }
  ]
}

